<?xml version="1.0" encoding="UTF-8"?><svg id="Layer_1" xmlns="http://www.w3.org/2000/svg" viewBox="0 0 362.23 362.24"><defs><style>.cls-1{fill:#d02027;}</style></defs><path class="cls-1" d="m181.11,110.41c12.72,0,25.43,3.41,36.64,10.19l.73-.73c-22.82-13.92-51.83-13.95-74.71.01l.73.73c11.22-6.79,23.92-10.2,36.62-10.2Zm61.26,108.08c13.92-22.82,13.95-51.83-.01-74.71l-.73.73c13.59,22.46,13.57,50.86.01,73.26l.72.72Zm72.69-76.36h7.28c-13.67-49.42-52.68-88.53-102.23-102.22v7.27c45.67,13.32,81.65,49.39,94.94,94.95Zm-239.39,37.5H0v3h75.66c-.01-1-.01-2,0-3Zm144.45,135.45v7.28c49.42-13.67,88.53-52.67,102.22-102.22h-7.27c-13.31,45.68-49.39,81.66-94.95,94.95Zm-38.98-63.2c-.25,0-.5,0-.75,0-12.88-.13-25.19-3.68-35.92-10.2l-.73.73c10.93,6.69,23.49,10.34,36.64,10.47.25,0,.51,0,.76,0,13.37,0,26.2-3.66,37.35-10.49l-.73-.73c-10.94,6.65-23.51,10.22-36.62,10.22Zm105.43-72.25c.01,1,.01,2,0,3h75.67v-3h-75.66Zm-246.67-37.5h7.27c13.31-45.68,49.39-81.65,94.95-94.94v-7.28c-49.42,13.67-88.53,52.67-102.22,102.22Zm79.95,1.62c-6.69,10.93-10.34,23.49-10.47,36.64-.14,13.65,3.53,26.75,10.49,38.11l.73-.73c-6.78-11.15-10.35-23.99-10.21-37.37.13-12.88,3.68-25.19,10.2-35.92l-.73-.73Zm-72.67,76.38h-7.28c13.67,49.42,52.68,88.53,102.23,102.22v-7.27c-45.67-13.32-81.65-49.39-94.94-94.95ZM179.62,0v75.68c1,0,2,0,3,0V0h-3Zm0,362.24h3v-75.66c-1,0-2,0-3,0v75.66Zm2.5-182.11v-5.47h-2v5.47h-5.47v2h5.47v5.48h2v-5.48h5.47v-2h-5.47Z"/></svg>